<svg width="25" height="25" viewBox="0 0 25 25" fill="none" xmlns="http://www.w3.org/2000/svg">
<mask id="mask0_12_1449" style="mask-type:luminance" maskUnits="userSpaceOnUse" x="0" y="0" width="25" height="25">
<rect x="0.450195" y="0.5" width="24" height="24" fill="white"/>
</mask>
<g mask="url(#mask0_12_1449)">
<path fill-rule="evenodd" clip-rule="evenodd" d="M12.4502 12.5C10.6639 12.5 9.01323 11.547 8.12007 10C7.2269 8.453 7.2269 6.54701 8.12007 5C9.01323 3.453 10.6639 2.5 12.4502 2.5C14.2365 2.5 15.8872 3.45299 16.7803 5C17.6735 6.547 17.6735 8.45299 16.7803 10C15.8872 11.547 14.2365 12.5 12.4502 12.5H12.4502ZM12.4502 10.5C14.107 10.5 15.4502 9.15686 15.4502 7.50001C15.4502 5.84316 14.1071 4.50001 12.4502 4.5C10.7934 4.5 9.4502 5.84313 9.4502 7.49999C9.45019 9.15684 10.7933 10.5 12.4502 10.5H12.4502ZM21.4502 21.5C21.4502 21.8573 21.2596 22.1874 20.9502 22.366C20.6408 22.5447 20.2596 22.5447 19.9502 22.366C19.6408 22.1874 19.4502 21.8573 19.4502 21.5V19.5C19.4502 17.8431 18.107 16.5 16.4502 16.5H8.4502C6.79334 16.5 5.4502 17.8431 5.4502 19.5V21.5C5.4502 21.8573 5.2596 22.1874 4.9502 22.366C4.64079 22.5447 4.2596 22.5447 3.9502 22.366C3.64079 22.1874 3.4502 21.8573 3.4502 21.5V19.5C3.45019 16.7386 5.68877 14.5 8.4502 14.5H16.4502C19.2116 14.5 21.4502 16.7386 21.4502 19.5V21.5Z" fill="#9E9E9E"/>
</g>
</svg>
